/* XPM */
static char * kenfmcoin64_xpm[] = {
"64 64 45 1",
" 	c None",
".	c #000000",
"+	c #747474",
"@	c #989898",
"#	c #111111",
"$	c #242424",
"%	c #999999",
"&	c #666666",
"*	c #C4C4C4",
"=	c #FFFFFF",
"-	c #1E1E1E",
";	c #A1A1A1",
">	c #4E4E4E",
",	c #FBFBFB",
"'	c #DADADA",
")	c #020202",
"!	c #6B6B6B",
"~	c #EEEEEE",
"{	c #0C0C0C",
"]	c #878787",
"^	c #FAFAFA",
"/	c #1D1D1D",
"(	c #A3A3A3",
"_	c #353535",
":	c #C0C0C0",
"<	c #EFEFEF",
"[	c #505050",
"}	c #F0F0F0",
"|	c #161616",
"1	c #696969",
"2	c #4C4C4C",
"3	c #A5A5A5",
"4	c #BDBDBD",
"5	c #252525",
"6	c #FCFCFC",
"7	c #313131",
"8	c #1C1C1C",
"9	c #848484",
"0	c #EDEDED",
"a	c #0B0B0B",
"b	c #797979",
"c	c #9F9F9F",
"d	c #121212",
"e	c #262626",
"f	c #646464",
"                                                                ",
"                          ............                          ",
"                      ....................                      ",
"                    ........................                    ",
"                  ............................                  ",
"                ................................                ",
"              ....................................              ",
"             ......................................             ",
"            ........................................            ",
"           ..........................................           ",
"          ............................................          ",
"         ..............................................         ",
"        ................................................        ",
"       ..................................................       ",
"      ....................................................      ",
"      ....................................................      ",
"     ......................................................     ",
"     ......................................................     ",
"    ....................+@@@#.....$%%%&.....................    ",
"    ....................*===-.....;===>.....................    ",
"   .....................*===-....$,==')......................   ",
"   .....................*===-....;===!.......................   ",
"  ......................*===-...$,==~{........................  ",
"  ......................*===-...;===].........................  ",
"  ......................*===-..$,==^/.........................  ",
"  ......................*===-..;===(..........................  ",
" .......................*===-.$,===_........................... ",
" .......................*===-.;===:............................ ",
" .......................*===-.<===[............................ ",
" .......................*===-.}==')............................ ",
" .......................*===-.}==!............................. ",
" .......................*===-.}==|............................. ",
" .......................*===-.}==1............................. ",
" .......................*===-.}==')............................ ",
" .......................*===-.}===2............................ ",
" .......................*===-.3===4............................ ",
" .......................*===-.56===7........................... ",
" .......................*===-..3===;........................... ",
"  ......................*===-..56==^8.........................  ",
"  ......................*===-...3===9.........................  ",
"  ......................*===-...56==0a........................  ",
"  ......................*===-....3===1........................  ",
"   .....................*===-....56==')......................   ",
"   .....................*===-.....3===2......................   ",
"    ....................bcccd.....e%%%f.....................    ",
"    ........................................................    ",
"     ......................................................     ",
"     ......................................................     ",
"      ....................................................      ",
"      ....................................................      ",
"       ..................................................       ",
"        ................................................        ",
"         ..............................................         ",
"          ............................................          ",
"           ..........................................           ",
"            ........................................            ",
"             ......................................             ",
"              ....................................              ",
"                ................................                ",
"                  ............................                  ",
"                    ........................                    ",
"                      ....................                      ",
"                          ............                          ",
"                                                                "};
