/* XPM */
static char * kenfmcoin32_xpm[] = {
"32 32 38 1",
" 	c None",
".	c #000000",
"+	c #B4B4B4",
"@	c #CCCCCC",
"#	c #0B0B0B",
"$	c #979797",
"%	c #2D2D2D",
"&	c #E2E2E2",
"*	c #FFFFFF",
"=	c #0F0F0F",
"-	c #313131",
";	c #FEFEFE",
">	c #D2D2D2",
",	c #010101",
"'	c #B1B1B1",
")	c #5F5F5F",
"!	c #E9E9E9",
"~	c #080808",
"{	c #7C7C7C",
"]	c #F8F8F8",
"^	c #F6F6F6",
"/	c #141414",
"(	c #9F9F9F",
"_	c #E5E5E5",
":	c #424242",
"<	c #747474",
"[	c #B3B3B3",
"}	c #0A0A0A",
"|	c #E8E8E8",
"1	c #292929",
"2	c #090909",
"3	c #E6E6E6",
"4	c #464646",
"5	c #505050",
"6	c #040404",
"7	c #343434",
"8	c #555555",
"9	c #1C1C1C",
"               ..               ",
"          ............          ",
"        ................        ",
"       ..................       ",
"      ....................      ",
"     ......................     ",
"    ........................    ",
"   ..........................   ",
"  ............................  ",
"  ..........+@#..$@%..........  ",
" ...........&*=.-;>,..........  ",
" ...........&*=.'*)............ ",
" ...........&*=-;!~............ ",
" ...........&*='*{............. ",
" ...........&*=]^/............. ",
"............&*=](...............",
"............&*=]>,..............",
" ...........&*=_*:............. ",
" ...........&*=<*[............. ",
" ...........&*=}|;1............ ",
" ...........&*=.<*$............ ",
" ...........&*=.23^/........... ",
"  ..........456..789..........  ",
"  ............................  ",
"   ..........................   ",
"    ........................    ",
"     ......................     ",
"      ....................      ",
"       ..................       ",
"        ................        ",
"          ...........           ",
"               ..               "};
