/* XPM */
static char * kenfmcoin128_xpm[] = {
"128 128 51 1",
" 	c None",
".	c #000000",
"+	c #191919",
"@	c #2F2F2F",
"#	c #0B0B0B",
"$	c #333333",
"%	c #1C1C1C",
"&	c #898989",
"*	c #FFFFFF",
"=	c #3C3C3C",
"-	c #848484",
";	c #494949",
">	c #121212",
",	c #F1F1F1",
"'	c #D8D8D8",
")	c #020202",
"!	c #656565",
"~	c #EAEAEA",
"{	c #090909",
"]	c #818181",
"^	c #F8F8F8",
"/	c #181818",
"(	c #9D9D9D",
"_	c #BABABA",
":	c #101010",
"<	c #EFEFEF",
"[	c #DEDEDE",
"}	c #D6D6D6",
"|	c #010101",
"1	c #E1E1E1",
"2	c #FEFEFE",
"3	c #292929",
"4	c #989898",
"5	c #F6F6F6",
"6	c #141414",
"7	c #7C7C7C",
"8	c #E9E9E9",
"9	c #080808",
"0	c #606060",
"a	c #DFDFDF",
"b	c #D0D0D0",
"c	c #8B8B8B",
"d	c #434343",
"e	c #F3F3F3",
"f	c #B4B4B4",
"g	c #D3D3D3",
"h	c #212121",
"i	c #3E3E3E",
"j	c #0E0E0E",
"k	c #444444",
"l	c #252525",
"                                                                                                                                ",
"                                                                                                                                ",
"                                                       ..................                                                       ",
"                                                  ............................                                                  ",
"                                              ....................................                                              ",
"                                           ..........................................                                           ",
"                                         ...............................................                                        ",
"                                      ....................................................                                      ",
"                                    ........................................................                                    ",
"                                  ............................................................                                  ",
"                                ................................................................                                ",
"                               ..................................................................                               ",
"                             ......................................................................                             ",
"                            ........................................................................                            ",
"                          ............................................................................                          ",
"                         ..............................................................................                         ",
"                        ................................................................................                        ",
"                       ..................................................................................                       ",
"                      ....................................................................................                      ",
"                     ......................................................................................                     ",
"                    ........................................................................................                    ",
"                   ..........................................................................................                   ",
"                  ............................................................................................                  ",
"                 ..............................................................................................                 ",
"                ................................................................................................                ",
"               ..................................................................................................               ",
"              ...................................................................................................               ",
"              ....................................................................................................              ",
"             ......................................................................................................             ",
"            ........................................................................................................            ",
"            ........................................................................................................            ",
"           ..........................................................................................................           ",
"          ............................................................................................................          ",
"          ............................................................................................................          ",
"         ..............................................................................................................         ",
"         ..............................................................................................................         ",
"        ........................................+@@@@@@@#............#$$$$$$$%..........................................        ",
"        ........................................&*******=............-*******;..........................................        ",
"       .........................................&*******=...........>,******')...........................................       ",
"       .........................................&*******=...........-*******!............................................       ",
"      ..........................................&*******=..........>,******~{............................................       ",
"      ..........................................&*******=..........-*******]..............................................      ",
"      ..........................................&*******=.........>,******^/..............................................      ",
"     ...........................................&*******=.........-*******(................................................     ",
"     ...........................................&*******=........>,*******@................................................     ",
"     ...........................................&*******=........-*******_.................................................     ",
"    ............................................&*******=.......:<*******;..................................................    ",
"    ............................................&*******=.......-*******')..................................................    ",
"    ............................................&*******=......:<*******!...................................................    ",
"    ............................................&*******=......-*******~{...................................................    ",
"   .............................................&*******=.....:<*******].....................................................   ",
"   .............................................&*******=.....-*******^/.....................................................   ",
"   .............................................&*******=....:<*******(......................................................   ",
"   .............................................&*******=....-********@......................................................   ",
"   .............................................&*******=...:<*******_.......................................................   ",
"  ..............................................&*******=...-********;.......................................................   ",
"  ..............................................&*******=...[*******}|........................................................  ",
"  ..............................................&*******=...1*******!.........................................................  ",
"  ..............................................&*******=...1******~{.........................................................  ",
"  ..............................................&*******=...1******]..........................................................  ",
"  ..............................................&*******=...1*****^/..........................................................  ",
"  ..............................................&*******=...1*****(...........................................................  ",
"  ..............................................&*******=...1*****@...........................................................  ",
"  ..............................................&*******=...1****23...........................................................  ",
"  ..............................................&*******=...1*****4...........................................................  ",
"  ..............................................&*******=...1*****56..........................................................  ",
"  ..............................................&*******=...1******7..........................................................  ",
"  ..............................................&*******=...1******89.........................................................  ",
"  ..............................................&*******=...1*******0.........................................................  ",
"  ..............................................&*******=...a*******b.........................................................  ",
"  ..............................................&*******=...c********d........................................................  ",
"  ..............................................&*******=...6e*******f........................................................  ",
"  ..............................................&*******=....c*******23.......................................................  ",
"   .............................................&*******=....6e*******4......................................................   ",
"   .............................................&*******=.....c*******56.....................................................   ",
"   .............................................&*******=.....6e*******7.....................................................   ",
"   .............................................&*******=......c*******89....................................................   ",
"   .............................................&*******=......6e*******0....................................................   ",
"    ............................................&*******=.......c*******g|..................................................    ",
"    ............................................&*******=.......6e*******d..................................................    ",
"    ............................................&*******=........c*******f..................................................    ",
"    ............................................&*******=........6e******23.................................................    ",
"     ...........................................&*******=.........c*******4................................................     ",
"     ...........................................&*******=.........6e******56...............................................     ",
"     ...........................................&*******=..........c*******7...............................................     ",
"      ..........................................&*******=..........6e******89.............................................      ",
"      ..........................................&*******=...........c*******0.............................................      ",
"       .........................................&*******=...........6e******g|...........................................       ",
"       .........................................&*******=............c*******d...........................................       ",
"       .........................................hiiiiiiij............:kkkkkkkl...........................................       ",
"        ................................................................................................................        ",
"        ................................................................................................................        ",
"         ..............................................................................................................         ",
"         ..............................................................................................................         ",
"          ............................................................................................................          ",
"          ............................................................................................................          ",
"           ..........................................................................................................           ",
"            ........................................................................................................            ",
"            ........................................................................................................            ",
"             ......................................................................................................             ",
"              ....................................................................................................              ",
"              ....................................................................................................              ",
"               ..................................................................................................               ",
"                ................................................................................................                ",
"                 ..............................................................................................                 ",
"                  ............................................................................................                  ",
"                   ..........................................................................................                   ",
"                    ........................................................................................                    ",
"                     ......................................................................................                     ",
"                      ....................................................................................                      ",
"                       ..................................................................................                       ",
"                        ................................................................................                        ",
"                         ..............................................................................                         ",
"                          ...........................................................................                           ",
"                            ........................................................................                            ",
"                             ......................................................................                             ",
"                               ..................................................................                               ",
"                                ................................................................                                ",
"                                  ............................................................                                  ",
"                                    ........................................................                                    ",
"                                      ....................................................                                      ",
"                                        ...............................................                                         ",
"                                           ..........................................                                           ",
"                                              ....................................                                              ",
"                                                  ............................                                                  ",
"                                                       ..................                                                       ",
"                                                                                                                                ",
"                                                                                                                                "};
