/* XPM */
static char * kenfmcoin16_xpm[] = {
"16 16 24 1",
" 	c None",
".	c #000000",
"+	c #606060",
"@	c #020202",
"#	c #262626",
"$	c #3E3E3E",
"%	c #F1F1F1",
"&	c #070707",
"*	c #B8B8B8",
"=	c #4C4C4C",
"-	c #3D3D3D",
";	c #D9D9D9",
">	c #808080",
",	c #6A6A6A",
"'	c #7B7B7B",
")	c #848484",
"!	c #242424",
"~	c #E7E7E7",
"{	c #0B0B0B",
"]	c #999999",
"^	c #686868",
"/	c #252525",
"(	c #010101",
"_	c #161616",
"      ....      ",
"    ........    ",
"   ..........   ",
"  ............  ",
" .....+@#$..... ",
" .....%&*=..... ",
"......%-;@......",
"......%>,.......",
"......%').......",
"......%!~{......",
" .....%&]^..... ",
" ...../({_..... ",
"  ............  ",
"   ..........   ",
"    ........    ",
"      ....      "};
